# xmcd
#
# Track frame offsets:
#	150
#	10780
#	20917
#	31137
#	41967
#	54537
#	65730
#	80445
#	93952
#	108197
#	119297
#	132910
#	146397
#	159377
#	172190
#	186507
#	198587
#
# Disc length: 2807 seconds
#
# Revision: 1
# Processed by: cddbd v1.4PL0 Copyright (c) Steve Scherf et al.
# Submitted via: audiograbber 1.81.03
#
DISCID=ef0af511
DTITLE=Various Artist - Romantic Favorites
DYEAR=1993
DGENRE=Blues
TTITLE0=Timi Yuro - Hurt
TTITLE1=Gene Pitney - I'm gonna be strong
TTITLE2=Pat Boone - Love letters in the sand
TTITLE3=Gerry and The Pacemakers - Ferry 'cross the mersey
TTITLE4=Johnny Ray - Just walking in the rain
TTITLE5=Don Williams - Storybook Children
TTITLE6=Aretha Franklin - Share your love with me
TTITLE7=Percy Sledge - Take time to know her
TTITLE8=Eydie Gorme - Breaking up his hands to do
TTITLE9=The Shirelles - To know him is to love him
TTITLE10=Jimmy Ruffin - What becomes of the broken  hearted
TTITLE11=Dionne Warwick - I'm your pupped
TTITLE12=Johnny Tillotson - It keeps right on A-Hurtin'
TTITLE13=Anita Bryant - Paper rose
TTITLE14=PJ. Proby - Somwhere
TTITLE15=Dave Barry - The crying game
TTITLE16=Pat Boone - April love
EXTD=50 Great Hits
EXTT0=
EXTT1=
EXTT2=
EXTT3=
EXTT4=
EXTT5=
EXTT6=
EXTT7=
EXTT8=
EXTT9=
EXTT10=
EXTT11=
EXTT12=
EXTT13=
EXTT14=
EXTT15=
EXTT16=
PLAYORDER=
